<mxfile modified="2023-10-07T20:42:19.333Z" host="Electron" agent="Mozilla/5.0 (Windows NT 10.0; Win64; x64) AppleWebKit/537.36 (KHTML, like Gecko) draw.io/22.0.2 Chrome/114.0.5735.289 Electron/25.8.4 Safari/537.36" etag="HZ1DhrmLtuBezvvu3UzU" version="22.0.2" type="device">
  <diagram id="7gcUSTIZ7YSJ5vT40chW" name="Page-1">
    <mxGraphModel dx="987" dy="577" grid="1" gridSize="10" guides="1" tooltips="1" connect="1" arrows="1" fold="1" page="1" pageScale="1" pageWidth="1169" pageHeight="827" math="0" shadow="0">
      <root>
        <mxCell id="0" />
        <mxCell id="1" parent="0" />
        <mxCell id="SZY12_XKgGBlkoAp8IEY-8" value="Daily Timmed&lt;br&gt;Trigger Function" style="aspect=fixed;html=1;perimeter=none;align=center;shadow=0;dashed=0;image;fontSize=12;image=img/lib/mscae/Functions.svg;" parent="1" vertex="1">
          <mxGeometry x="100" y="330" width="50" height="46" as="geometry" />
        </mxCell>
        <mxCell id="GcBe7Na2tCdBNBVdZOrR-1" value="Daily Batch&lt;br&gt;Ochestration Function" style="aspect=fixed;html=1;perimeter=none;align=center;shadow=0;dashed=0;image;fontSize=12;image=img/lib/mscae/Functions.svg;" vertex="1" parent="1">
          <mxGeometry x="243" y="330" width="50" height="46" as="geometry" />
        </mxCell>
        <mxCell id="GcBe7Na2tCdBNBVdZOrR-6" value="Bus Daily Log &lt;br&gt;Activity Function" style="aspect=fixed;html=1;perimeter=none;align=center;shadow=0;dashed=0;image;fontSize=12;image=img/lib/mscae/Functions.svg;" vertex="1" parent="1">
          <mxGeometry x="380" y="90" width="50" height="46" as="geometry" />
        </mxCell>
        <mxCell id="GcBe7Na2tCdBNBVdZOrR-8" value="Bus Log &lt;br&gt;Activity Function" style="aspect=fixed;html=1;perimeter=none;align=center;shadow=0;dashed=0;image;fontSize=12;image=img/lib/mscae/Functions.svg;" vertex="1" parent="1">
          <mxGeometry x="380" y="210" width="50" height="46" as="geometry" />
        </mxCell>
        <mxCell id="GcBe7Na2tCdBNBVdZOrR-9" value="Bus Report&lt;br&gt;Activity Function" style="aspect=fixed;html=1;perimeter=none;align=center;shadow=0;dashed=0;image;fontSize=12;image=img/lib/mscae/Functions.svg;" vertex="1" parent="1">
          <mxGeometry x="680" y="330" width="50" height="46" as="geometry" />
        </mxCell>
        <mxCell id="GcBe7Na2tCdBNBVdZOrR-18" value="Mail Notification&lt;br&gt;Activity Function" style="aspect=fixed;html=1;perimeter=none;align=center;shadow=0;dashed=0;image;fontSize=12;image=img/lib/mscae/Functions.svg;" vertex="1" parent="1">
          <mxGeometry x="960" y="330" width="50" height="46" as="geometry" />
        </mxCell>
        <mxCell id="GcBe7Na2tCdBNBVdZOrR-19" value="Daily Batch&lt;br&gt;Ochestration Function" style="aspect=fixed;html=1;perimeter=none;align=center;shadow=0;dashed=0;image;fontSize=12;image=img/lib/mscae/Functions.svg;" vertex="1" parent="1">
          <mxGeometry x="530" y="330" width="50" height="46" as="geometry" />
        </mxCell>
        <mxCell id="GcBe7Na2tCdBNBVdZOrR-21" value="" style="endArrow=classic;html=1;rounded=0;entryX=-0.01;entryY=0.515;entryDx=0;entryDy=0;entryPerimeter=0;exitX=1.008;exitY=0.448;exitDx=0;exitDy=0;exitPerimeter=0;" edge="1" parent="1" target="GcBe7Na2tCdBNBVdZOrR-9">
          <mxGeometry width="50" height="50" relative="1" as="geometry">
            <mxPoint x="580" y="352.60799999999995" as="sourcePoint" />
            <mxPoint x="676.0000000000001" y="353.39" as="targetPoint" />
          </mxGeometry>
        </mxCell>
        <mxCell id="GcBe7Na2tCdBNBVdZOrR-22" value="" style="endArrow=classic;html=1;rounded=0;entryX=-0.056;entryY=0.517;entryDx=0;entryDy=0;entryPerimeter=0;" edge="1" parent="1" target="GcBe7Na2tCdBNBVdZOrR-1">
          <mxGeometry width="50" height="50" relative="1" as="geometry">
            <mxPoint x="150" y="354" as="sourcePoint" />
            <mxPoint x="246" y="352.5" as="targetPoint" />
          </mxGeometry>
        </mxCell>
        <mxCell id="GcBe7Na2tCdBNBVdZOrR-25" value="Daily Batch&lt;br&gt;Ochestration Function" style="aspect=fixed;html=1;perimeter=none;align=center;shadow=0;dashed=0;image;fontSize=12;image=img/lib/mscae/Functions.svg;" vertex="1" parent="1">
          <mxGeometry x="820" y="330" width="50" height="46" as="geometry" />
        </mxCell>
        <mxCell id="GcBe7Na2tCdBNBVdZOrR-26" value="" style="endArrow=classic;html=1;rounded=0;entryX=0;entryY=0.494;entryDx=0;entryDy=0;entryPerimeter=0;exitX=1.047;exitY=0.518;exitDx=0;exitDy=0;exitPerimeter=0;" edge="1" parent="1" target="GcBe7Na2tCdBNBVdZOrR-25">
          <mxGeometry width="50" height="50" relative="1" as="geometry">
            <mxPoint x="729.9999999999999" y="352.798" as="sourcePoint" />
            <mxPoint x="815.9999999999999" y="352.798" as="targetPoint" />
          </mxGeometry>
        </mxCell>
        <mxCell id="GcBe7Na2tCdBNBVdZOrR-27" value="" style="endArrow=classic;html=1;rounded=0;entryX=0;entryY=0.494;entryDx=0;entryDy=0;entryPerimeter=0;exitX=1.047;exitY=0.518;exitDx=0;exitDy=0;exitPerimeter=0;" edge="1" parent="1">
          <mxGeometry width="50" height="50" relative="1" as="geometry">
            <mxPoint x="869.9999999999999" y="352.408" as="sourcePoint" />
            <mxPoint x="960" y="352.61" as="targetPoint" />
          </mxGeometry>
        </mxCell>
        <mxCell id="GcBe7Na2tCdBNBVdZOrR-28" value="Bus Log &lt;br&gt;Activity Function" style="aspect=fixed;html=1;perimeter=none;align=center;shadow=0;dashed=0;image;fontSize=12;image=img/lib/mscae/Functions.svg;" vertex="1" parent="1">
          <mxGeometry x="380" y="330" width="50" height="46" as="geometry" />
        </mxCell>
        <mxCell id="GcBe7Na2tCdBNBVdZOrR-30" value="" style="endArrow=classic;html=1;rounded=0;exitX=1.048;exitY=0.483;exitDx=0;exitDy=0;exitPerimeter=0;entryX=-0.072;entryY=0.483;entryDx=0;entryDy=0;entryPerimeter=0;" edge="1" parent="1" source="GcBe7Na2tCdBNBVdZOrR-1" target="GcBe7Na2tCdBNBVdZOrR-28">
          <mxGeometry width="50" height="50" relative="1" as="geometry">
            <mxPoint x="450" y="380" as="sourcePoint" />
            <mxPoint x="500" y="330" as="targetPoint" />
          </mxGeometry>
        </mxCell>
        <mxCell id="GcBe7Na2tCdBNBVdZOrR-35" value="" style="endArrow=classic;html=1;rounded=0;exitX=1.048;exitY=0.483;exitDx=0;exitDy=0;exitPerimeter=0;entryX=-0.048;entryY=0.5;entryDx=0;entryDy=0;entryPerimeter=0;" edge="1" parent="1" target="GcBe7Na2tCdBNBVdZOrR-19">
          <mxGeometry width="50" height="50" relative="1" as="geometry">
            <mxPoint x="430" y="352.5" as="sourcePoint" />
            <mxPoint x="511" y="352.5" as="targetPoint" />
          </mxGeometry>
        </mxCell>
        <mxCell id="GcBe7Na2tCdBNBVdZOrR-37" style="edgeStyle=orthogonalEdgeStyle;rounded=0;orthogonalLoop=1;jettySize=auto;html=1;entryX=-0.036;entryY=0.475;entryDx=0;entryDy=0;entryPerimeter=0;" edge="1" parent="1" source="GcBe7Na2tCdBNBVdZOrR-1" target="GcBe7Na2tCdBNBVdZOrR-6">
          <mxGeometry relative="1" as="geometry">
            <Array as="points">
              <mxPoint x="270" y="112" />
            </Array>
          </mxGeometry>
        </mxCell>
        <mxCell id="GcBe7Na2tCdBNBVdZOrR-38" style="edgeStyle=orthogonalEdgeStyle;rounded=0;orthogonalLoop=1;jettySize=auto;html=1;entryX=-0.058;entryY=0.469;entryDx=0;entryDy=0;entryPerimeter=0;" edge="1" parent="1" source="GcBe7Na2tCdBNBVdZOrR-1" target="GcBe7Na2tCdBNBVdZOrR-8">
          <mxGeometry relative="1" as="geometry">
            <Array as="points">
              <mxPoint x="270" y="232" />
            </Array>
          </mxGeometry>
        </mxCell>
        <mxCell id="GcBe7Na2tCdBNBVdZOrR-39" style="edgeStyle=orthogonalEdgeStyle;rounded=0;orthogonalLoop=1;jettySize=auto;html=1;entryX=0.539;entryY=-0.016;entryDx=0;entryDy=0;entryPerimeter=0;" edge="1" parent="1" source="GcBe7Na2tCdBNBVdZOrR-8" target="GcBe7Na2tCdBNBVdZOrR-19">
          <mxGeometry relative="1" as="geometry" />
        </mxCell>
        <mxCell id="GcBe7Na2tCdBNBVdZOrR-40" style="edgeStyle=orthogonalEdgeStyle;rounded=0;orthogonalLoop=1;jettySize=auto;html=1;entryX=0.55;entryY=-0.004;entryDx=0;entryDy=0;entryPerimeter=0;" edge="1" parent="1" source="GcBe7Na2tCdBNBVdZOrR-6" target="GcBe7Na2tCdBNBVdZOrR-19">
          <mxGeometry relative="1" as="geometry" />
        </mxCell>
        <mxCell id="GcBe7Na2tCdBNBVdZOrR-41" value="" style="verticalLabelPosition=bottom;html=1;verticalAlign=top;align=center;strokeColor=none;fillColor=#00BEF2;shape=mxgraph.azure.storage_blob;" vertex="1" parent="1">
          <mxGeometry x="320" y="460" width="50" height="45" as="geometry" />
        </mxCell>
        <mxCell id="GcBe7Na2tCdBNBVdZOrR-42" style="edgeStyle=orthogonalEdgeStyle;rounded=0;orthogonalLoop=1;jettySize=auto;html=1;entryX=0;entryY=0.5;entryDx=0;entryDy=0;entryPerimeter=0;" edge="1" parent="1" source="GcBe7Na2tCdBNBVdZOrR-1" target="GcBe7Na2tCdBNBVdZOrR-41">
          <mxGeometry relative="1" as="geometry">
            <Array as="points">
              <mxPoint x="313" y="353" />
              <mxPoint x="313" y="430" />
              <mxPoint x="300" y="430" />
              <mxPoint x="300" y="483" />
            </Array>
          </mxGeometry>
        </mxCell>
        <mxCell id="GcBe7Na2tCdBNBVdZOrR-44" style="edgeStyle=orthogonalEdgeStyle;rounded=0;orthogonalLoop=1;jettySize=auto;html=1;entryX=1;entryY=0.5;entryDx=0;entryDy=0;entryPerimeter=0;" edge="1" parent="1" source="GcBe7Na2tCdBNBVdZOrR-28" target="GcBe7Na2tCdBNBVdZOrR-41">
          <mxGeometry relative="1" as="geometry" />
        </mxCell>
        <mxCell id="GcBe7Na2tCdBNBVdZOrR-45" value="" style="verticalLabelPosition=bottom;html=1;verticalAlign=top;align=center;strokeColor=none;fillColor=#00BEF2;shape=mxgraph.azure.storage_blob;" vertex="1" parent="1">
          <mxGeometry x="676" y="470" width="50" height="45" as="geometry" />
        </mxCell>
        <mxCell id="GcBe7Na2tCdBNBVdZOrR-46" value="" style="endArrow=classic;html=1;rounded=0;entryX=0.5;entryY=0;entryDx=0;entryDy=0;entryPerimeter=0;" edge="1" parent="1" target="GcBe7Na2tCdBNBVdZOrR-45">
          <mxGeometry width="50" height="50" relative="1" as="geometry">
            <mxPoint x="700" y="420" as="sourcePoint" />
            <mxPoint x="440" y="440" as="targetPoint" />
          </mxGeometry>
        </mxCell>
        <mxCell id="GcBe7Na2tCdBNBVdZOrR-47" value="Daily Batch&lt;br&gt;Ochestration Function" style="aspect=fixed;html=1;perimeter=none;align=center;shadow=0;dashed=0;image;fontSize=12;image=img/lib/mscae/Functions.svg;" vertex="1" parent="1">
          <mxGeometry x="1100" y="330" width="50" height="46" as="geometry" />
        </mxCell>
        <mxCell id="GcBe7Na2tCdBNBVdZOrR-48" value="" style="endArrow=classic;html=1;rounded=0;entryX=0;entryY=0.494;entryDx=0;entryDy=0;entryPerimeter=0;exitX=1.047;exitY=0.518;exitDx=0;exitDy=0;exitPerimeter=0;" edge="1" parent="1">
          <mxGeometry width="50" height="50" relative="1" as="geometry">
            <mxPoint x="1009.9999999999999" y="352.528" as="sourcePoint" />
            <mxPoint x="1100" y="352.73" as="targetPoint" />
          </mxGeometry>
        </mxCell>
      </root>
    </mxGraphModel>
  </diagram>
</mxfile>
